<svg width="35" height="36" viewBox="0 0 35 36" fill="none" xmlns="http://www.w3.org/2000/svg">
<path d="M16.75 19.7388H13.25C12.1454 19.7388 11.25 18.8434 11.25 17.7388V7.23877C11.25 6.1342 12.1454 5.23877 13.25 5.23877H19.5L23.75 9.48877V11.7388" stroke="#DA0175" stroke-width="1.5" stroke-linecap="round" stroke-linejoin="round"/>
<path d="M22.5 15.2388V19.7388" stroke="#DA0175" stroke-width="1.5" stroke-linecap="round" stroke-linejoin="round"/>
<path d="M24.75 17.4888H20.25" stroke="#DA0175" stroke-width="1.5" stroke-linecap="round" stroke-linejoin="round"/>
<path d="M23.5 9.73877H19.25V5.48877" stroke="#DA0175" stroke-width="1.5" stroke-linecap="round" stroke-linejoin="round"/>
<path d="M3.112 32.5528C2.57333 32.5528 2.104 32.4381 1.704 32.2088C1.304 31.9741 0.997333 31.6408 0.784 31.2088C0.570667 30.7714 0.464 30.2568 0.464 29.6648C0.464 29.0781 0.570667 28.5688 0.784 28.1368C0.997333 27.6994 1.304 27.3661 1.704 27.1368C2.104 26.9021 2.57333 26.7848 3.112 26.7848C3.464 26.7848 3.79733 26.8408 4.112 26.9528C4.42667 27.0594 4.70133 27.2168 4.936 27.4248C5.03733 27.5048 5.088 27.6114 5.088 27.7448C5.088 27.8408 5.06133 27.9234 5.008 27.9928C4.95467 28.0568 4.89067 28.0888 4.816 28.0888C4.72533 28.0888 4.63733 28.0541 4.552 27.9848C4.296 27.7928 4.06133 27.6594 3.848 27.5848C3.64 27.5048 3.40267 27.4648 3.136 27.4648C2.54933 27.4648 2.09867 27.6541 1.784 28.0328C1.46933 28.4114 1.312 28.9554 1.312 29.6648C1.312 30.3794 1.46933 30.9261 1.784 31.3048C2.09867 31.6834 2.54933 31.8728 3.136 31.8728C3.392 31.8728 3.624 31.8328 3.832 31.7528C4.04533 31.6728 4.28533 31.5394 4.552 31.3528C4.65867 31.2834 4.74667 31.2488 4.816 31.2488C4.89067 31.2488 4.95467 31.2834 5.008 31.3528C5.06133 31.4168 5.088 31.4968 5.088 31.5928C5.088 31.7261 5.03733 31.8328 4.936 31.9128C4.70133 32.1208 4.42667 32.2808 4.112 32.3928C3.79733 32.4994 3.464 32.5528 3.112 32.5528ZM7.59194 32.5448C7.20794 32.5448 6.86927 32.4621 6.57594 32.2968C6.28794 32.1314 6.06394 31.8968 5.90394 31.5928C5.74927 31.2834 5.67194 30.9261 5.67194 30.5208C5.67194 30.1101 5.74927 29.7528 5.90394 29.4488C6.06394 29.1394 6.28794 28.9021 6.57594 28.7368C6.86927 28.5714 7.20794 28.4888 7.59194 28.4888C7.97594 28.4888 8.31194 28.5714 8.59994 28.7368C8.89327 28.9021 9.11727 29.1394 9.27194 29.4488C9.43194 29.7528 9.51194 30.1101 9.51194 30.5208C9.51194 30.9261 9.43194 31.2834 9.27194 31.5928C9.11727 31.8968 8.89327 32.1314 8.59994 32.2968C8.31194 32.4621 7.97594 32.5448 7.59194 32.5448ZM7.59194 31.9048C7.94927 31.9048 8.22127 31.7874 8.40794 31.5528C8.59994 31.3181 8.69594 30.9741 8.69594 30.5208C8.69594 30.0728 8.59994 29.7314 8.40794 29.4968C8.21594 29.2568 7.94394 29.1368 7.59194 29.1368C7.23994 29.1368 6.96794 29.2568 6.77594 29.4968C6.58394 29.7314 6.48794 30.0728 6.48794 30.5208C6.48794 30.9741 6.58127 31.3181 6.76794 31.5528C6.95994 31.7874 7.2346 31.9048 7.59194 31.9048ZM12.5076 28.4888C12.8489 28.4888 13.1502 28.5714 13.4116 28.7368C13.6729 28.9021 13.8756 29.1368 14.0196 29.4408C14.1689 29.7448 14.2436 30.0994 14.2436 30.5048C14.2436 30.9048 14.1689 31.2594 14.0196 31.5688C13.8756 31.8781 13.6702 32.1181 13.4036 32.2888C13.1422 32.4594 12.8436 32.5448 12.5076 32.5448C12.2142 32.5448 11.9556 32.4834 11.7316 32.3608C11.5076 32.2328 11.3369 32.0514 11.2196 31.8168V32.1368C11.2196 32.2541 11.1822 32.3501 11.1076 32.4248C11.0382 32.4941 10.9422 32.5288 10.8196 32.5288C10.6969 32.5288 10.5982 32.4941 10.5236 32.4248C10.4489 32.3501 10.4116 32.2541 10.4116 32.1368V27.1928C10.4116 27.0754 10.4489 26.9821 10.5236 26.9128C10.6036 26.8434 10.7049 26.8088 10.8276 26.8088C10.9449 26.8088 11.0382 26.8434 11.1076 26.9128C11.1822 26.9768 11.2196 27.0648 11.2196 27.1768V29.2248C11.3369 28.9901 11.5076 28.8088 11.7316 28.6808C11.9556 28.5528 12.2142 28.4888 12.5076 28.4888ZM12.3156 31.9048C12.6622 31.9048 12.9316 31.7821 13.1236 31.5368C13.3209 31.2914 13.4196 30.9474 13.4196 30.5048C13.4196 30.0674 13.3236 29.7314 13.1316 29.4968C12.9396 29.2568 12.6676 29.1368 12.3156 29.1368C11.9636 29.1368 11.6916 29.2568 11.4996 29.4968C11.3129 29.7368 11.2196 30.0781 11.2196 30.5208C11.2196 30.9634 11.3129 31.3048 11.4996 31.5448C11.6916 31.7848 11.9636 31.9048 12.3156 31.9048ZM17.1861 28.5048C17.4421 28.4888 17.5701 28.5981 17.5701 28.8328C17.5701 28.9501 17.5408 29.0381 17.4821 29.0968C17.4235 29.1554 17.3221 29.1901 17.1781 29.2008L16.9381 29.2248C16.6021 29.2568 16.3515 29.3741 16.1861 29.5768C16.0261 29.7794 15.9461 30.0248 15.9461 30.3128V32.1448C15.9461 32.2728 15.9088 32.3688 15.8341 32.4328C15.7595 32.4968 15.6635 32.5288 15.5461 32.5288C15.4288 32.5288 15.3301 32.4968 15.2501 32.4328C15.1755 32.3688 15.1381 32.2728 15.1381 32.1448V28.8888C15.1381 28.7661 15.1755 28.6728 15.2501 28.6088C15.3301 28.5394 15.4288 28.5048 15.5461 28.5048C15.6528 28.5048 15.7408 28.5394 15.8101 28.6088C15.8848 28.6728 15.9221 28.7634 15.9221 28.8808V29.2648C16.0288 29.0301 16.1835 28.8514 16.3861 28.7288C16.5888 28.6061 16.8181 28.5341 17.0741 28.5128L17.1861 28.5048ZM19.6844 28.4888C20.2017 28.4888 20.5857 28.6194 20.8364 28.8808C21.0924 29.1421 21.2204 29.5394 21.2204 30.0728V32.1448C21.2204 32.2674 21.1857 32.3634 21.1164 32.4328C21.047 32.4968 20.951 32.5288 20.8284 32.5288C20.711 32.5288 20.6177 32.4941 20.5484 32.4248C20.479 32.3554 20.4444 32.2621 20.4444 32.1448V31.8488C20.343 32.0728 20.191 32.2461 19.9884 32.3688C19.791 32.4861 19.559 32.5448 19.2924 32.5448C19.0364 32.5448 18.8017 32.4941 18.5884 32.3928C18.3804 32.2861 18.215 32.1421 18.0924 31.9608C17.9697 31.7794 17.9084 31.5741 17.9084 31.3448C17.903 31.0568 17.975 30.8328 18.1244 30.6728C18.2737 30.5074 18.5164 30.3901 18.8524 30.3208C19.1884 30.2461 19.655 30.2088 20.2524 30.2088H20.4364V29.9768C20.4364 29.6781 20.375 29.4621 20.2524 29.3288C20.1297 29.1954 19.9324 29.1288 19.6604 29.1288C19.4737 29.1288 19.2977 29.1528 19.1324 29.2008C18.967 29.2488 18.7857 29.3181 18.5884 29.4088C18.4444 29.4888 18.343 29.5288 18.2844 29.5288C18.2044 29.5288 18.1377 29.4994 18.0844 29.4408C18.0364 29.3821 18.0124 29.3074 18.0124 29.2168C18.0124 29.1368 18.0337 29.0674 18.0764 29.0088C18.1244 28.9448 18.199 28.8834 18.3004 28.8248C18.487 28.7234 18.7057 28.6434 18.9564 28.5848C19.207 28.5208 19.4497 28.4888 19.6844 28.4888ZM19.4364 31.9448C19.7297 31.9448 19.9697 31.8461 20.1564 31.6488C20.343 31.4461 20.4364 31.1874 20.4364 30.8728V30.6648H20.2924C19.8764 30.6648 19.5564 30.6834 19.3324 30.7208C19.1084 30.7581 18.9484 30.8221 18.8524 30.9128C18.7564 30.9981 18.7084 31.1234 18.7084 31.2888C18.7084 31.4808 18.7777 31.6381 18.9164 31.7608C19.055 31.8834 19.2284 31.9448 19.4364 31.9448ZM24.4296 28.4888C25.363 28.4888 25.8296 29.0141 25.8296 30.0648V32.1448C25.8296 32.2674 25.7923 32.3634 25.7176 32.4328C25.6483 32.4968 25.5496 32.5288 25.4216 32.5288C25.299 32.5288 25.2003 32.4941 25.1256 32.4248C25.0563 32.3554 25.0216 32.2621 25.0216 32.1448V30.1048C25.0216 29.7741 24.955 29.5314 24.8216 29.3768C24.6936 29.2221 24.491 29.1448 24.2136 29.1448C23.8883 29.1448 23.627 29.2461 23.4296 29.4488C23.2323 29.6514 23.1336 29.9234 23.1336 30.2648V32.1448C23.1336 32.2621 23.0963 32.3554 23.0216 32.4248C22.9523 32.4941 22.8563 32.5288 22.7336 32.5288C22.611 32.5288 22.5123 32.4941 22.4376 32.4248C22.363 32.3554 22.3256 32.2621 22.3256 32.1448V28.8888C22.3256 28.7768 22.363 28.6861 22.4376 28.6168C22.5176 28.5421 22.6163 28.5048 22.7336 28.5048C22.851 28.5048 22.9443 28.5394 23.0136 28.6088C23.083 28.6781 23.1176 28.7688 23.1176 28.8808V29.2088C23.2456 28.9741 23.4243 28.7954 23.6536 28.6728C23.883 28.5501 24.1416 28.4888 24.4296 28.4888ZM29.823 31.4968C29.8977 31.4968 29.959 31.5288 30.007 31.5928C30.055 31.6514 30.079 31.7261 30.079 31.8168C30.079 31.8914 30.0577 31.9608 30.015 32.0248C29.9777 32.0834 29.911 32.1448 29.815 32.2088C29.6763 32.2994 29.5163 32.3741 29.335 32.4328C29.1537 32.4914 28.9697 32.5261 28.783 32.5368L28.743 32.8408C28.8177 32.8248 28.8843 32.8168 28.943 32.8168C29.1083 32.8168 29.247 32.8648 29.359 32.9608C29.4763 33.0568 29.535 33.1928 29.535 33.3688C29.535 33.5661 29.4497 33.7261 29.279 33.8488C29.1083 33.9768 28.8657 34.0408 28.551 34.0408C28.343 34.0408 28.159 34.0114 27.999 33.9528C27.903 33.9154 27.855 33.8488 27.855 33.7528C27.855 33.6888 27.8763 33.6354 27.919 33.5928C27.967 33.5501 28.0283 33.5394 28.103 33.5608C28.263 33.6034 28.4123 33.6248 28.551 33.6248C28.6897 33.6248 28.7963 33.6034 28.871 33.5608C28.9457 33.5181 28.983 33.4541 28.983 33.3688C28.983 33.3048 28.9617 33.2541 28.919 33.2168C28.8817 33.1848 28.8257 33.1688 28.751 33.1688C28.6977 33.1688 28.6257 33.1794 28.535 33.2008C28.4443 33.2221 28.3883 33.2328 28.367 33.2328C28.3243 33.2328 28.2843 33.2168 28.247 33.1848C28.215 33.1581 28.2017 33.1208 28.207 33.0728L28.271 32.5208C27.791 32.4461 27.4097 32.2328 27.127 31.8808C26.8497 31.5288 26.711 31.0808 26.711 30.5368C26.711 30.1314 26.791 29.7741 26.951 29.4648C27.1163 29.1554 27.3457 28.9154 27.639 28.7448C27.9323 28.5741 28.2683 28.4888 28.647 28.4888C28.8497 28.4888 29.0523 28.5181 29.255 28.5768C29.463 28.6354 29.647 28.7154 29.807 28.8168C29.9777 28.9341 30.063 29.0701 30.063 29.2248C30.063 29.3154 30.039 29.3928 29.991 29.4568C29.943 29.5154 29.8817 29.5448 29.807 29.5448C29.759 29.5448 29.711 29.5341 29.663 29.5128C29.615 29.4861 29.5537 29.4488 29.479 29.4008C29.3457 29.3154 29.2203 29.2514 29.103 29.2088C28.991 29.1608 28.855 29.1368 28.695 29.1368C28.3323 29.1368 28.0497 29.2594 27.847 29.5048C27.6497 29.7501 27.551 30.0914 27.551 30.5288C27.551 30.9661 27.6497 31.3048 27.847 31.5448C28.0443 31.7794 28.3243 31.8968 28.687 31.8968C28.847 31.8968 28.9883 31.8728 29.111 31.8248C29.2337 31.7768 29.359 31.7128 29.487 31.6328C29.5457 31.5954 29.6043 31.5634 29.663 31.5368C29.7217 31.5101 29.775 31.4968 29.823 31.4968ZM32.4422 28.4888C32.9595 28.4888 33.3435 28.6194 33.5942 28.8808C33.8502 29.1421 33.9782 29.5394 33.9782 30.0728V32.1448C33.9782 32.2674 33.9435 32.3634 33.8742 32.4328C33.8049 32.4968 33.7089 32.5288 33.5862 32.5288C33.4689 32.5288 33.3755 32.4941 33.3062 32.4248C33.2369 32.3554 33.2022 32.2621 33.2022 32.1448V31.8488C33.1009 32.0728 32.9489 32.2461 32.7462 32.3688C32.5489 32.4861 32.3169 32.5448 32.0502 32.5448C31.7942 32.5448 31.5595 32.4941 31.3462 32.3928C31.1382 32.2861 30.9729 32.1421 30.8502 31.9608C30.7275 31.7794 30.6662 31.5741 30.6662 31.3448C30.6609 31.0568 30.7329 30.8328 30.8822 30.6728C31.0315 30.5074 31.2742 30.3901 31.6102 30.3208C31.9462 30.2461 32.4129 30.2088 33.0102 30.2088H33.1942V29.9768C33.1942 29.6781 33.1329 29.4621 33.0102 29.3288C32.8875 29.1954 32.6902 29.1288 32.4182 29.1288C32.2315 29.1288 32.0555 29.1528 31.8902 29.2008C31.7249 29.2488 31.5435 29.3181 31.3462 29.4088C31.2022 29.4888 31.1009 29.5288 31.0422 29.5288C30.9622 29.5288 30.8955 29.4994 30.8422 29.4408C30.7942 29.3821 30.7702 29.3074 30.7702 29.2168C30.7702 29.1368 30.7915 29.0674 30.8342 29.0088C30.8822 28.9448 30.9569 28.8834 31.0582 28.8248C31.2449 28.7234 31.4635 28.6434 31.7142 28.5848C31.9649 28.5208 32.2075 28.4888 32.4422 28.4888ZM32.1942 31.9448C32.4875 31.9448 32.7275 31.8461 32.9142 31.6488C33.1009 31.4461 33.1942 31.1874 33.1942 30.8728V30.6648H33.0502C32.6342 30.6648 32.3142 30.6834 32.0902 30.7208C31.8662 30.7581 31.7062 30.8221 31.6102 30.9128C31.5142 30.9981 31.4662 31.1234 31.4662 31.2888C31.4662 31.4808 31.5355 31.6381 31.6742 31.7608C31.8129 31.8834 31.9862 31.9448 32.1942 31.9448Z" fill="#DA0175"/>
</svg>
